<svg width="36" height="42" viewBox="0 0 36 42" fill="none" xmlns="http://www.w3.org/2000/svg">
<path d="M33.5127 33.6331C34.0133 33.0196 33.5621 32.1398 32.7704 32.1268C22.664 31.9604 14.2118 32.1472 3.75821 32.7832C2.96742 32.8314 2.55522 33.7311 3.08318 34.3217C6.74636 38.4201 12.0738 41 18.0039 41C24.2595 41 29.8446 38.1291 33.5127 33.6331Z" stroke="white" stroke-width="0.5" stroke-linecap="round" stroke-linejoin="round"/>
<path d="M0.642722 11.0579C0.252378 11.7378 0.827455 12.5294 1.60585 12.436C13.1726 11.048 21.6979 10.6341 33.7882 11.3703C34.5749 11.4182 35.1044 10.5873 34.6676 9.93129C31.0829 4.54757 24.9578 1 18.0039 1C10.5757 1 4.09318 5.04797 0.642722 11.0579Z" stroke="white" stroke-width="0.5" stroke-linecap="round" stroke-linejoin="round"/>
</svg>
